<svg width="1195" height="1032" viewBox="0 0 1195 1032" fill="none" xmlns="http://www.w3.org/2000/svg">
<path d="M74.5675 954.899C-152.867 1086.08 230.78 369.842 74.5675 108.135C-81.6452 -153.571 942.642 151.936 1133.18 108.219C1323.72 64.502 993.914 729.491 1133.18 954.899C1272.44 1180.31 302.002 823.72 74.5675 954.899Z" fill="#FFFCE2"/>
<mask id="path-2-inside-1_17_30" fill="white">
<path fill-rule="evenodd" clip-rule="evenodd" d="M961.498 331.463C961.515 330.829 961.524 330.192 961.524 329.554C961.524 292.018 931.095 261.589 893.56 261.589C856.024 261.589 825.595 292.018 825.595 329.554C825.595 333.752 825.976 337.861 826.704 341.849L859.577 706.216H927.663V705.216H860.491L860.482 705.109H927.647L927.65 705.076L927.663 705.077L960.787 339.6C961.161 337.077 961.396 334.51 961.484 331.905L961.524 331.465L961.498 331.463ZM893.56 823.439C917.682 823.439 937.238 803.884 937.238 779.761C937.238 755.638 917.682 736.083 893.56 736.083C869.437 736.083 849.882 755.638 849.882 779.761C849.882 803.884 869.437 823.439 893.56 823.439Z"/>
</mask>
<path fill-rule="evenodd" clip-rule="evenodd" d="M961.498 331.463C961.515 330.829 961.524 330.192 961.524 329.554C961.524 292.018 931.095 261.589 893.56 261.589C856.024 261.589 825.595 292.018 825.595 329.554C825.595 333.752 825.976 337.861 826.704 341.849L859.577 706.216H927.663V705.216H860.491L860.482 705.109H927.647L927.65 705.076L927.663 705.077L960.787 339.6C961.161 337.077 961.396 334.51 961.484 331.905L961.524 331.465L961.498 331.463ZM893.56 823.439C917.682 823.439 937.238 803.884 937.238 779.761C937.238 755.638 917.682 736.083 893.56 736.083C869.437 736.083 849.882 755.638 849.882 779.761C849.882 803.884 869.437 823.439 893.56 823.439Z" fill="#F84128"/>
<path d="M961.498 331.463L959.499 331.407L959.447 333.285L961.317 333.454L961.498 331.463ZM826.704 341.849L828.696 341.669L828.688 341.579L828.672 341.489L826.704 341.849ZM859.577 706.216L857.585 706.395L857.75 708.216H859.577V706.216ZM927.663 706.216V708.216H929.663V706.216H927.663ZM927.663 705.216H929.663V703.216H927.663V705.216ZM860.491 705.216L858.499 705.395L858.664 707.216H860.491V705.216ZM860.482 705.109V703.109H858.293L858.49 705.289L860.482 705.109ZM927.647 705.109V707.109H929.475L929.639 705.288L927.647 705.109ZM927.65 705.076L927.828 703.084L925.837 702.905L925.658 704.897L927.65 705.076ZM927.663 705.077L927.485 707.069L929.475 707.248L929.655 705.258L927.663 705.077ZM960.787 339.6L958.809 339.306L958.8 339.363L958.795 339.419L960.787 339.6ZM961.484 331.905L959.492 331.725L959.487 331.781L959.485 331.837L961.484 331.905ZM961.524 331.465L963.516 331.646L963.697 329.654L961.705 329.473L961.524 331.465ZM959.524 329.554C959.524 330.174 959.516 330.792 959.499 331.407L963.497 331.518C963.515 330.865 963.524 330.211 963.524 329.554H959.524ZM893.56 263.589C929.991 263.589 959.524 293.123 959.524 329.554H963.524C963.524 290.914 932.2 259.589 893.56 259.589V263.589ZM827.595 329.554C827.595 293.123 857.128 263.589 893.56 263.589V259.589C854.919 259.589 823.595 290.914 823.595 329.554H827.595ZM828.672 341.489C827.965 337.62 827.595 333.631 827.595 329.554H823.595C823.595 333.873 823.987 338.103 824.737 342.208L828.672 341.489ZM861.569 706.036L828.696 341.669L824.712 342.029L857.585 706.395L861.569 706.036ZM927.663 704.216H859.577V708.216H927.663V704.216ZM925.663 705.216V706.216H929.663V705.216H925.663ZM860.491 707.216H927.663V703.216H860.491V707.216ZM858.49 705.289L858.499 705.395L862.483 705.036L862.474 704.929L858.49 705.289ZM927.647 703.109H860.482V707.109H927.647V703.109ZM925.658 704.897L925.655 704.93L929.639 705.288L929.642 705.255L925.658 704.897ZM927.842 703.085L927.828 703.084L927.471 707.068L927.485 707.069L927.842 703.085ZM958.795 339.419L925.671 704.896L929.655 705.258L962.779 339.78L958.795 339.419ZM959.485 331.837C959.399 334.366 959.171 336.859 958.809 339.306L962.765 339.893C963.15 337.296 963.392 334.654 963.483 331.973L959.485 331.837ZM959.532 331.284L959.492 331.725L963.476 332.086L963.516 331.646L959.532 331.284ZM961.317 333.454L961.344 333.457L961.705 329.473L961.678 329.471L961.317 333.454ZM935.238 779.761C935.238 802.779 916.578 821.439 893.56 821.439V825.439C918.787 825.439 939.238 804.988 939.238 779.761H935.238ZM893.56 738.083C916.578 738.083 935.238 756.743 935.238 779.761H939.238C939.238 754.534 918.787 734.083 893.56 734.083V738.083ZM851.882 779.761C851.882 756.743 870.541 738.083 893.56 738.083V734.083C868.332 734.083 847.882 754.534 847.882 779.761H851.882ZM893.56 821.439C870.541 821.439 851.882 802.779 851.882 779.761H847.882C847.882 804.988 868.332 825.439 893.56 825.439V821.439Z" fill="black" mask="url(#path-2-inside-1_17_30)"/>
<path d="M377.075 335.323H393.203V453.851H377.075V335.323ZM361.587 381.019H381.299V394.715H361.587V381.019ZM350.579 337.371H366.451V448.347H350.579V337.371ZM296.435 348.507H313.459V416.987H296.435V348.507ZM296.435 410.459H304.627C310.344 410.459 316.488 410.288 323.059 409.947C329.715 409.52 336.712 408.581 344.051 407.131L345.587 421.723C337.907 423.088 330.653 423.984 323.827 424.411C317 424.837 310.6 425.051 304.627 425.051H296.435V410.459ZM433.641 375.003H450.537V396.763H433.641V375.003ZM475.241 375.003H492.265V396.763H475.241V375.003ZM409.449 391.643H516.713V404.955H409.449V391.643ZM462.825 410.971C475.625 410.971 485.694 412.848 493.033 416.603C500.371 420.272 504.041 425.563 504.041 432.475C504.041 439.301 500.371 444.592 493.033 448.347C485.694 452.101 475.625 453.979 462.825 453.979C450.025 453.979 439.955 452.101 432.617 448.347C425.363 444.592 421.737 439.301 421.737 432.475C421.737 425.563 425.363 420.272 432.617 416.603C439.955 412.848 450.025 410.971 462.825 410.971ZM462.825 423.771C457.534 423.771 453.097 424.112 449.513 424.795C446.014 425.392 443.369 426.331 441.577 427.611C439.785 428.891 438.889 430.512 438.889 432.475C438.889 434.437 439.785 436.101 441.577 437.467C443.369 438.747 446.014 439.685 449.513 440.283C453.097 440.88 457.534 441.179 462.825 441.179C468.115 441.179 472.51 440.88 476.009 440.283C479.593 439.685 482.281 438.747 484.073 437.467C485.865 436.101 486.761 434.437 486.761 432.475C486.761 430.512 485.865 428.891 484.073 427.611C482.281 426.331 479.593 425.392 476.009 424.795C472.51 424.112 468.115 423.771 462.825 423.771ZM463.081 337.115C471.87 337.115 479.465 338.053 485.865 339.931C492.35 341.723 497.342 344.325 500.841 347.739C504.339 351.152 506.089 355.205 506.089 359.899C506.089 364.592 504.339 368.645 500.841 372.059C497.342 375.387 492.35 377.989 485.865 379.867C479.465 381.659 471.87 382.555 463.081 382.555C454.462 382.555 446.91 381.659 440.425 379.867C433.939 377.989 428.947 375.387 425.449 372.059C421.95 368.645 420.201 364.592 420.201 359.899C420.201 355.205 421.95 351.152 425.449 347.739C428.947 344.325 433.939 341.723 440.425 339.931C446.91 338.053 454.462 337.115 463.081 337.115ZM463.081 350.043C457.79 350.043 453.225 350.427 449.385 351.195C445.545 351.877 442.643 352.944 440.681 354.395C438.803 355.845 437.865 357.68 437.865 359.899C437.865 362.032 438.803 363.824 440.681 365.275C442.643 366.725 445.545 367.835 449.385 368.603C453.225 369.285 457.79 369.627 463.081 369.627C468.542 369.627 473.15 369.285 476.905 368.603C480.659 367.835 483.518 366.725 485.481 365.275C487.443 363.824 488.425 362.032 488.425 359.899C488.425 357.68 487.443 355.845 485.481 354.395C483.518 352.944 480.659 351.877 476.905 351.195C473.15 350.427 468.542 350.043 463.081 350.043ZM608.607 335.195H625.631V454.107H608.607V335.195ZM561.759 343.515C567.817 343.515 573.193 345.264 577.887 348.763C582.58 352.176 586.249 357.083 588.895 363.483C591.625 369.797 592.991 377.264 592.991 385.883C592.991 394.587 591.625 402.139 588.895 408.539C586.249 414.853 582.58 419.76 577.887 423.259C573.193 426.672 567.817 428.379 561.759 428.379C555.785 428.379 550.452 426.672 545.759 423.259C541.065 419.76 537.353 414.853 534.623 408.539C531.977 402.139 530.655 394.587 530.655 385.883C530.655 377.264 531.977 369.797 534.623 363.483C537.353 357.083 541.065 352.176 545.759 348.763C550.452 345.264 555.785 343.515 561.759 343.515ZM561.759 359.003C558.857 359.003 556.297 360.027 554.079 362.075C551.86 364.123 550.111 367.152 548.831 371.163C547.636 375.088 547.039 379.995 547.039 385.883C547.039 391.685 547.636 396.635 548.831 400.731C550.111 404.741 551.86 407.771 554.079 409.819C556.297 411.867 558.857 412.891 561.759 412.891C564.745 412.891 567.348 411.867 569.567 409.819C571.785 407.771 573.492 404.741 574.687 400.731C575.967 396.635 576.607 391.685 576.607 385.883C576.607 379.995 575.967 375.088 574.687 371.163C573.492 367.152 571.785 364.123 569.567 362.075C567.348 360.027 564.745 359.003 561.759 359.003ZM333.683 502.867H348.787V505.811C348.787 510.504 347.763 514.984 345.715 519.251C343.752 523.517 340.851 527.4 337.011 530.899C333.171 534.312 328.349 537.171 322.547 539.475C316.829 541.779 310.216 543.4 302.707 544.339L296.435 530.771C301.555 530.173 306.12 529.277 310.131 528.083C314.227 526.888 317.725 525.48 320.627 523.859C323.613 522.152 326.045 520.317 327.923 518.355C329.885 516.307 331.336 514.216 332.275 512.083C333.213 509.949 333.683 507.859 333.683 505.811V502.867ZM342.003 502.867H356.979V505.811C356.979 507.859 357.448 509.949 358.387 512.083C359.325 514.216 360.776 516.307 362.739 518.355C364.701 520.317 367.133 522.152 370.035 523.859C372.936 525.48 376.392 526.888 380.403 528.083C384.499 529.277 389.107 530.173 394.227 530.771L388.083 544.339C380.488 543.4 373.832 541.779 368.115 539.475C362.397 537.171 357.576 534.312 353.651 530.899C349.811 527.4 346.909 523.56 344.947 519.379C342.984 515.112 342.003 510.589 342.003 505.811V502.867ZM301.555 495.443H389.363V508.883H301.555V495.443ZM304.755 593.235H386.931V606.931H304.755V593.235ZM304.755 573.011H321.779V598.227H304.755V573.011ZM291.699 552.147H399.091V565.715H291.699V552.147ZM336.627 535.891H353.651V557.651H336.627V535.891ZM495.977 490.323H512.233V608.851H495.977V490.323ZM481.897 535.763H501.481V549.587H481.897V535.763ZM470.505 492.243H486.377V603.603H470.505V492.243ZM430.697 508.883H443.625V519.251C443.625 526.589 443.155 533.672 442.217 540.499C441.363 547.24 439.913 553.555 437.865 559.443C435.902 565.245 433.257 570.451 429.929 575.059C426.601 579.667 422.462 583.421 417.513 586.323L407.273 573.395C413.161 569.896 417.811 565.373 421.225 559.827C424.638 554.28 427.07 548.051 428.521 541.139C429.971 534.141 430.697 526.845 430.697 519.251V508.883ZM434.153 508.883H447.081V519.251C447.081 526.163 447.806 532.861 449.257 539.347C450.793 545.832 453.267 551.635 456.681 556.755C460.179 561.875 464.873 565.971 470.761 569.043L461.033 581.971C454.377 578.387 449.086 573.437 445.161 567.123C441.235 560.808 438.419 553.555 436.713 545.363C435.006 537.171 434.153 528.467 434.153 519.251V508.883ZM410.985 502.355H464.873V516.051H410.985V502.355ZM603.231 490.451H620.255V608.979H603.231V490.451ZM616.415 536.659H637.279V550.739H616.415V536.659ZM526.687 507.859H595.807V521.427H526.687V507.859ZM561.503 528.211C567.22 528.211 572.34 529.448 576.863 531.923C581.385 534.312 584.927 537.597 587.487 541.779C590.132 545.96 591.455 550.824 591.455 556.371C591.455 561.917 590.132 566.824 587.487 571.091C584.927 575.272 581.385 578.6 576.863 581.075C572.425 583.464 567.305 584.659 561.503 584.659C555.785 584.659 550.623 583.464 546.015 581.075C541.492 578.6 537.908 575.272 535.263 571.091C532.703 566.824 531.423 561.917 531.423 556.371C531.423 550.824 532.703 545.96 535.263 541.779C537.908 537.597 541.492 534.312 546.015 531.923C550.623 529.448 555.785 528.211 561.503 528.211ZM561.503 542.035C558.772 542.035 556.383 542.589 554.335 543.699C552.287 544.808 550.665 546.429 549.471 548.563C548.276 550.696 547.679 553.299 547.679 556.371C547.679 559.357 548.276 561.96 549.471 564.179C550.665 566.312 552.287 567.976 554.335 569.171C556.383 570.28 558.772 570.835 561.503 570.835C564.148 570.835 566.495 570.28 568.543 569.171C570.591 567.976 572.212 566.312 573.407 564.179C574.601 561.96 575.199 559.357 575.199 556.371C575.199 553.299 574.601 550.696 573.407 548.563C572.212 546.429 570.591 544.808 568.543 543.699C566.495 542.589 564.148 542.035 561.503 542.035ZM552.799 492.371H569.951V513.107H552.799V492.371ZM673.621 509.139H687.189V522.451C687.189 529.277 686.463 535.976 685.013 542.547C683.647 549.117 681.557 555.304 678.741 561.107C676.01 566.824 672.554 571.901 668.373 576.339C664.191 580.691 659.327 584.147 653.781 586.707L644.053 573.267C649.002 570.963 653.311 567.976 656.981 564.307C660.735 560.637 663.807 556.541 666.197 552.019C668.671 547.411 670.506 542.589 671.701 537.555C672.981 532.435 673.621 527.4 673.621 522.451V509.139ZM677.333 509.139H690.773V522.451C690.773 527.144 691.37 531.923 692.565 536.787C693.845 541.565 695.679 546.131 698.069 550.483C700.458 554.749 703.487 558.589 707.157 562.003C710.826 565.416 715.178 568.147 720.213 570.195L710.869 583.763C705.237 581.288 700.33 577.96 696.149 573.779C691.967 569.597 688.469 564.776 685.653 559.315C682.837 553.853 680.746 548.008 679.381 541.779C678.015 535.464 677.333 529.021 677.333 522.451V509.139ZM648.789 501.715H715.349V515.795H648.789V501.715ZM726.357 490.451H743.381V608.979H726.357V490.451ZM324.083 651.083C330.227 651.083 335.645 652.277 340.339 654.667C345.117 657.056 348.872 660.341 351.603 664.523C354.419 668.619 355.827 673.355 355.827 678.731C355.827 684.107 354.419 688.885 351.603 693.067C348.872 697.248 345.117 700.533 340.339 702.923C335.645 705.312 330.227 706.507 324.083 706.507C318.109 706.507 312.733 705.312 307.955 702.923C303.261 700.533 299.507 697.248 296.691 693.067C293.96 688.885 292.595 684.107 292.595 678.731C292.595 673.355 293.96 668.619 296.691 664.523C299.507 660.341 303.261 657.056 307.955 654.667C312.733 652.277 318.109 651.083 324.083 651.083ZM324.211 664.907C321.309 664.907 318.707 665.461 316.403 666.571C314.099 667.595 312.264 669.173 310.899 671.307C309.619 673.355 308.979 675.829 308.979 678.731C308.979 681.632 309.619 684.107 310.899 686.155C312.264 688.203 314.099 689.781 316.403 690.891C318.707 692 321.309 692.555 324.211 692.555C327.112 692.555 329.672 692 331.891 690.891C334.195 689.781 335.987 688.203 337.267 686.155C338.632 684.107 339.315 681.632 339.315 678.731C339.315 675.829 338.632 673.355 337.267 671.307C335.987 669.173 334.195 667.595 331.891 666.571C329.672 665.461 327.112 664.907 324.211 664.907ZM367.987 645.451H385.011V703.691H367.987V645.451ZM378.355 669.899H400.755V683.851H378.355V669.899ZM302.195 747.211H308.851C312.264 747.211 315.549 747.125 318.707 746.955C321.949 746.784 325.064 746.443 328.051 745.931C331.123 745.333 334.109 744.523 337.011 743.499L339.443 756.939C336.2 758.048 332.957 758.859 329.715 759.371C326.472 759.968 323.144 760.352 319.731 760.523C316.403 760.779 312.776 760.907 308.851 760.907H302.195V747.211ZM302.195 715.083H318.707V751.435H302.195V715.083ZM335.347 715.467H394.483V727.627H335.347V715.467ZM364.915 730.699C371.656 730.699 377.16 732.235 381.427 735.307C385.693 738.293 387.827 742.304 387.827 747.339C387.827 752.544 385.693 756.64 381.427 759.627C377.16 762.613 371.656 764.107 364.915 764.107C358.173 764.107 352.669 762.613 348.403 759.627C344.136 756.64 342.003 752.544 342.003 747.339C342.003 742.304 344.136 738.293 348.403 735.307C352.669 732.235 358.173 730.699 364.915 730.699ZM364.915 742.219C362.696 742.219 360.819 742.645 359.283 743.499C357.832 744.352 357.107 745.632 357.107 747.339C357.107 749.131 357.832 750.453 359.283 751.307C360.819 752.16 362.696 752.587 364.915 752.587C367.133 752.587 368.968 752.16 370.419 751.307C371.955 750.453 372.723 749.131 372.723 747.339C372.723 745.632 371.955 744.352 370.419 743.499C368.968 742.645 367.133 742.219 364.915 742.219ZM356.723 707.019H373.235V724.683H356.723V707.019ZM421.993 716.363H438.889V726.347H486.377V716.363H503.145V762.699H421.993V716.363ZM438.889 739.147V749.387H486.377V739.147H438.889ZM409.449 697.163H516.713V710.475H409.449V697.163ZM454.377 646.603H468.969V650.187C468.969 654.368 468.243 658.336 466.793 662.091C465.427 665.845 463.422 669.344 460.777 672.587C458.131 675.829 454.846 678.773 450.921 681.419C447.081 683.979 442.643 686.155 437.609 687.947C432.574 689.653 426.985 690.933 420.841 691.787L414.697 678.603C420.073 678.005 424.894 677.024 429.161 675.659C433.427 674.293 437.139 672.672 440.297 670.795C443.454 668.832 446.057 666.741 448.105 664.523C450.238 662.219 451.817 659.872 452.841 657.483C453.865 655.008 454.377 652.576 454.377 650.187V646.603ZM457.193 646.603H471.785V650.187C471.785 652.576 472.297 655.008 473.321 657.483C474.345 659.872 475.881 662.219 477.929 664.523C480.062 666.741 482.707 668.832 485.865 670.795C489.022 672.672 492.734 674.293 497.001 675.659C501.353 677.024 506.174 678.005 511.465 678.603L505.321 691.787C499.177 690.933 493.587 689.653 488.553 687.947C483.603 686.155 479.166 683.979 475.241 681.419C471.315 678.773 468.03 675.829 465.385 672.587C462.739 669.344 460.691 665.845 459.241 662.091C457.875 658.251 457.193 654.283 457.193 650.187V646.603ZM609.375 645.323H626.271V763.851H609.375V645.323ZM533.471 656.587H550.495V730.315H533.471V656.587ZM533.471 720.203H543.967C552.671 720.203 561.759 719.861 571.231 719.179C580.703 718.411 590.345 717.045 600.159 715.083L601.951 729.291C591.881 731.424 581.94 732.875 572.127 733.643C562.399 734.325 553.012 734.667 543.967 734.667H533.471V720.203ZM720.725 645.195H737.877V764.107H720.725V645.195ZM734.165 689.099H755.029V703.179H734.165V689.099ZM649.557 721.611H659.541C666.282 721.611 672.597 721.525 678.485 721.355C684.373 721.099 690.09 720.715 695.637 720.203C701.183 719.605 706.858 718.795 712.661 717.771L714.325 731.851C708.351 732.875 702.463 733.685 696.661 734.283C690.943 734.88 685.055 735.264 678.997 735.435C672.938 735.605 666.453 735.691 659.541 735.691H649.557V721.611ZM649.557 656.203H704.853V669.899H666.581V728.267H649.557V656.203Z" fill="black"/>
</svg>
