<svg width="1194" height="1031" viewBox="0 0 1194 1031" fill="none" xmlns="http://www.w3.org/2000/svg">
<path d="M74.4082 954.181C-153.027 1085.36 230.621 369.124 74.4082 107.418C-81.8045 -154.289 942.482 151.218 1133.02 107.501C1323.56 63.7844 993.755 728.774 1133.02 954.181C1272.28 1179.59 301.843 823.003 74.4082 954.181Z" fill="#FFFCE2"/>
<path fill-rule="evenodd" clip-rule="evenodd" d="M905.25 321.087C905.267 320.502 905.275 319.916 905.275 319.328C905.275 284.744 876.3 256.709 840.557 256.709C804.814 256.709 775.839 284.744 775.839 319.328C775.839 323.196 776.202 326.982 776.896 330.656L808.198 666.366L873.032 666.366V665.366H809.109L809.108 665.347H873.016L873.019 665.316L873.032 665.317L904.573 328.583C904.929 326.259 905.153 323.895 905.237 321.496L905.275 321.089L905.25 321.087ZM840.557 774.37C863.527 774.37 882.149 756.353 882.149 734.127C882.149 711.902 863.527 693.884 840.557 693.884C817.587 693.884 798.966 711.902 798.966 734.127C798.966 756.353 817.587 774.37 840.557 774.37Z" fill="#F84128"/>
<path d="M373.816 308.257H389.944V426.785H373.816V308.257ZM358.328 353.953H378.04V367.649H358.328V353.953ZM347.32 310.305H363.192V421.281H347.32V310.305ZM293.176 321.441H310.2V389.921H293.176V321.441ZM293.176 383.393H301.368C307.085 383.393 313.229 383.222 319.8 382.881C326.456 382.454 333.453 381.516 340.792 380.065L342.328 394.657C334.648 396.022 327.394 396.918 320.568 397.345C313.741 397.772 307.341 397.985 301.368 397.985H293.176V383.393ZM430.382 347.937H447.278V369.697H430.382V347.937ZM471.982 347.937H489.006V369.697H471.982V347.937ZM406.19 364.577H513.454V377.889H406.19V364.577ZM459.566 383.905C472.366 383.905 482.435 385.782 489.774 389.537C497.112 393.206 500.782 398.497 500.782 405.409C500.782 412.236 497.112 417.526 489.774 421.281C482.435 425.036 472.366 426.913 459.566 426.913C446.766 426.913 436.696 425.036 429.358 421.281C422.104 417.526 418.478 412.236 418.478 405.409C418.478 398.497 422.104 393.206 429.358 389.537C436.696 385.782 446.766 383.905 459.566 383.905ZM459.566 396.705C454.275 396.705 449.838 397.046 446.254 397.729C442.755 398.326 440.11 399.265 438.318 400.545C436.526 401.825 435.63 403.446 435.63 405.409C435.63 407.372 436.526 409.036 438.318 410.401C440.11 411.681 442.755 412.62 446.254 413.217C449.838 413.814 454.275 414.113 459.566 414.113C464.856 414.113 469.251 413.814 472.75 413.217C476.334 412.62 479.022 411.681 480.814 410.401C482.606 409.036 483.502 407.372 483.502 405.409C483.502 403.446 482.606 401.825 480.814 400.545C479.022 399.265 476.334 398.326 472.75 397.729C469.251 397.046 464.856 396.705 459.566 396.705ZM459.822 310.049C468.611 310.049 476.206 310.988 482.606 312.865C489.091 314.657 494.083 317.26 497.582 320.673C501.08 324.086 502.83 328.14 502.83 332.833C502.83 337.526 501.08 341.58 497.582 344.993C494.083 348.321 489.091 350.924 482.606 352.801C476.206 354.593 468.611 355.489 459.822 355.489C451.203 355.489 443.651 354.593 437.166 352.801C430.68 350.924 425.688 348.321 422.19 344.993C418.691 341.58 416.942 337.526 416.942 332.833C416.942 328.14 418.691 324.086 422.19 320.673C425.688 317.26 430.68 314.657 437.166 312.865C443.651 310.988 451.203 310.049 459.822 310.049ZM459.822 322.977C454.531 322.977 449.966 323.361 446.126 324.129C442.286 324.812 439.384 325.878 437.422 327.329C435.544 328.78 434.606 330.614 434.606 332.833C434.606 334.966 435.544 336.758 437.422 338.209C439.384 339.66 442.286 340.769 446.126 341.537C449.966 342.22 454.531 342.561 459.822 342.561C465.283 342.561 469.891 342.22 473.646 341.537C477.4 340.769 480.259 339.66 482.222 338.209C484.184 336.758 485.166 334.966 485.166 332.833C485.166 330.614 484.184 328.78 482.222 327.329C480.259 325.878 477.4 324.812 473.646 324.129C469.891 323.361 465.283 322.977 459.822 322.977ZM605.348 308.129H622.372V427.041H605.348V308.129ZM558.5 316.449C564.558 316.449 569.934 318.198 574.628 321.697C579.321 325.11 582.99 330.017 585.636 336.417C588.366 342.732 589.732 350.198 589.732 358.817C589.732 367.521 588.366 375.073 585.636 381.473C582.99 387.788 579.321 392.694 574.628 396.193C569.934 399.606 564.558 401.313 558.5 401.313C552.526 401.313 547.193 399.606 542.5 396.193C537.806 392.694 534.094 387.788 531.364 381.473C528.718 375.073 527.396 367.521 527.396 358.817C527.396 350.198 528.718 342.732 531.364 336.417C534.094 330.017 537.806 325.11 542.5 321.697C547.193 318.198 552.526 316.449 558.5 316.449ZM558.5 331.937C555.598 331.937 553.038 332.961 550.82 335.009C548.601 337.057 546.852 340.086 545.572 344.097C544.377 348.022 543.78 352.929 543.78 358.817C543.78 364.62 544.377 369.569 545.572 373.665C546.852 377.676 548.601 380.705 550.82 382.753C553.038 384.801 555.598 385.825 558.5 385.825C561.486 385.825 564.089 384.801 566.308 382.753C568.526 380.705 570.233 377.676 571.428 373.665C572.708 369.569 573.348 364.62 573.348 358.817C573.348 352.929 572.708 348.022 571.428 344.097C570.233 340.086 568.526 337.057 566.308 335.009C564.089 332.961 561.486 331.937 558.5 331.937ZM330.424 475.801H345.528V478.745C345.528 483.438 344.504 487.918 342.456 492.185C340.493 496.452 337.592 500.334 333.752 503.833C329.912 507.246 325.09 510.105 319.288 512.409C313.57 514.713 306.957 516.334 299.448 517.273L293.176 503.705C298.296 503.108 302.861 502.212 306.872 501.017C310.968 499.822 314.466 498.414 317.368 496.793C320.354 495.086 322.786 493.252 324.664 491.289C326.626 489.241 328.077 487.15 329.016 485.017C329.954 482.884 330.424 480.793 330.424 478.745V475.801ZM338.744 475.801H353.72V478.745C353.72 480.793 354.189 482.884 355.128 485.017C356.066 487.15 357.517 489.241 359.48 491.289C361.442 493.252 363.874 495.086 366.776 496.793C369.677 498.414 373.133 499.822 377.144 501.017C381.24 502.212 385.848 503.108 390.968 503.705L384.824 517.273C377.229 516.334 370.573 514.713 364.856 512.409C359.138 510.105 354.317 507.246 350.392 503.833C346.552 500.334 343.65 496.494 341.688 492.313C339.725 488.046 338.744 483.524 338.744 478.745V475.801ZM298.296 468.377H386.104V481.817H298.296V468.377ZM301.496 566.169H383.672V579.865H301.496V566.169ZM301.496 545.945H318.52V571.161H301.496V545.945ZM288.44 525.081H395.832V538.649H288.44V525.081ZM333.368 508.825H350.392V530.585H333.368V508.825ZM492.718 463.257H508.974V581.785H492.718V463.257ZM478.638 508.697H498.222V522.521H478.638V508.697ZM467.246 465.177H483.118V576.537H467.246V465.177ZM427.438 481.817H440.366V492.185C440.366 499.524 439.896 506.606 438.958 513.433C438.104 520.174 436.654 526.489 434.606 532.377C432.643 538.18 429.998 543.385 426.67 547.993C423.342 552.601 419.203 556.356 414.254 559.257L404.014 546.329C409.902 542.83 414.552 538.308 417.966 532.761C421.379 527.214 423.811 520.985 425.262 514.073C426.712 507.076 427.438 499.78 427.438 492.185V481.817ZM430.894 481.817H443.822V492.185C443.822 499.097 444.547 505.796 445.998 512.281C447.534 518.766 450.008 524.569 453.422 529.689C456.92 534.809 461.614 538.905 467.502 541.977L457.774 554.905C451.118 551.321 445.827 546.372 441.902 540.057C437.976 533.742 435.16 526.489 433.454 518.297C431.747 510.105 430.894 501.401 430.894 492.185V481.817ZM407.726 475.289H461.614V488.985H407.726V475.289ZM599.972 463.385H616.996V581.913H599.972V463.385ZM613.156 509.593H634.02V523.673H613.156V509.593ZM523.428 480.793H592.548V494.361H523.428V480.793ZM558.244 501.145C563.961 501.145 569.081 502.382 573.604 504.857C578.126 507.246 581.668 510.532 584.228 514.713C586.873 518.894 588.196 523.758 588.196 529.305C588.196 534.852 586.873 539.758 584.228 544.025C581.668 548.206 578.126 551.534 573.604 554.009C569.166 556.398 564.046 557.593 558.244 557.593C552.526 557.593 547.364 556.398 542.756 554.009C538.233 551.534 534.649 548.206 532.004 544.025C529.444 539.758 528.164 534.852 528.164 529.305C528.164 523.758 529.444 518.894 532.004 514.713C534.649 510.532 538.233 507.246 542.756 504.857C547.364 502.382 552.526 501.145 558.244 501.145ZM558.244 514.969C555.513 514.969 553.124 515.524 551.076 516.633C549.028 517.742 547.406 519.364 546.212 521.497C545.017 523.63 544.42 526.233 544.42 529.305C544.42 532.292 545.017 534.894 546.212 537.113C547.406 539.246 549.028 540.91 551.076 542.105C553.124 543.214 555.513 543.769 558.244 543.769C560.889 543.769 563.236 543.214 565.284 542.105C567.332 540.91 568.953 539.246 570.148 537.113C571.342 534.894 571.94 532.292 571.94 529.305C571.94 526.233 571.342 523.63 570.148 521.497C568.953 519.364 567.332 517.742 565.284 516.633C563.236 515.524 560.889 514.969 558.244 514.969ZM549.54 465.305H566.692V486.041H549.54V465.305ZM670.362 482.073H683.93V495.385C683.93 502.212 683.204 508.91 681.754 515.481C680.388 522.052 678.298 528.238 675.482 534.041C672.751 539.758 669.295 544.836 665.114 549.273C660.932 553.625 656.068 557.081 650.522 559.641L640.794 546.201C645.743 543.897 650.052 540.91 653.722 537.241C657.476 533.572 660.548 529.476 662.938 524.953C665.412 520.345 667.247 515.524 668.442 510.489C669.722 505.369 670.362 500.334 670.362 495.385V482.073ZM674.074 482.073H687.514V495.385C687.514 500.078 688.111 504.857 689.306 509.721C690.586 514.5 692.42 519.065 694.81 523.417C697.199 527.684 700.228 531.524 703.898 534.937C707.567 538.35 711.919 541.081 716.954 543.129L707.61 556.697C701.978 554.222 697.071 550.894 692.89 546.713C688.708 542.532 685.21 537.71 682.394 532.249C679.578 526.788 677.487 520.942 676.122 514.713C674.756 508.398 674.074 501.956 674.074 495.385V482.073ZM645.53 474.649H712.09V488.729H645.53V474.649ZM723.098 463.385H740.122V581.913H723.098V463.385ZM320.824 624.017C326.968 624.017 332.386 625.212 337.08 627.601C341.858 629.99 345.613 633.276 348.344 637.457C351.16 641.553 352.568 646.289 352.568 651.665C352.568 657.041 351.16 661.82 348.344 666.001C345.613 670.182 341.858 673.468 337.08 675.857C332.386 678.246 326.968 679.441 320.824 679.441C314.85 679.441 309.474 678.246 304.696 675.857C300.002 673.468 296.248 670.182 293.432 666.001C290.701 661.82 289.336 657.041 289.336 651.665C289.336 646.289 290.701 641.553 293.432 637.457C296.248 633.276 300.002 629.99 304.696 627.601C309.474 625.212 314.85 624.017 320.824 624.017ZM320.952 637.841C318.05 637.841 315.448 638.396 313.144 639.505C310.84 640.529 309.005 642.108 307.64 644.241C306.36 646.289 305.72 648.764 305.72 651.665C305.72 654.566 306.36 657.041 307.64 659.089C309.005 661.137 310.84 662.716 313.144 663.825C315.448 664.934 318.05 665.489 320.952 665.489C323.853 665.489 326.413 664.934 328.632 663.825C330.936 662.716 332.728 661.137 334.008 659.089C335.373 657.041 336.056 654.566 336.056 651.665C336.056 648.764 335.373 646.289 334.008 644.241C332.728 642.108 330.936 640.529 328.632 639.505C326.413 638.396 323.853 637.841 320.952 637.841ZM364.728 618.385H381.752V676.625H364.728V618.385ZM375.096 642.833H397.496V656.785H375.096V642.833ZM298.936 720.145H305.592C309.005 720.145 312.29 720.06 315.448 719.889C318.69 719.718 321.805 719.377 324.792 718.865C327.864 718.268 330.85 717.457 333.752 716.433L336.184 729.873C332.941 730.982 329.698 731.793 326.456 732.305C323.213 732.902 319.885 733.286 316.472 733.457C313.144 733.713 309.517 733.841 305.592 733.841H298.936V720.145ZM298.936 688.017H315.448V724.369H298.936V688.017ZM332.088 688.401H391.224V700.561H332.088V688.401ZM361.656 703.633C368.397 703.633 373.901 705.169 378.168 708.241C382.434 711.228 384.568 715.238 384.568 720.273C384.568 725.478 382.434 729.574 378.168 732.561C373.901 735.548 368.397 737.041 361.656 737.041C354.914 737.041 349.41 735.548 345.144 732.561C340.877 729.574 338.744 725.478 338.744 720.273C338.744 715.238 340.877 711.228 345.144 708.241C349.41 705.169 354.914 703.633 361.656 703.633ZM361.656 715.153C359.437 715.153 357.56 715.58 356.024 716.433C354.573 717.286 353.848 718.566 353.848 720.273C353.848 722.065 354.573 723.388 356.024 724.241C357.56 725.094 359.437 725.521 361.656 725.521C363.874 725.521 365.709 725.094 367.16 724.241C368.696 723.388 369.464 722.065 369.464 720.273C369.464 718.566 368.696 717.286 367.16 716.433C365.709 715.58 363.874 715.153 361.656 715.153ZM353.464 679.953H369.976V697.617H353.464V679.953ZM418.734 689.297H435.63V699.281H483.118V689.297H499.886V735.633H418.734V689.297ZM435.63 712.081V722.321H483.118V712.081H435.63ZM406.19 670.097H513.454V683.409H406.19V670.097ZM451.118 619.537H465.71V623.121C465.71 627.302 464.984 631.27 463.534 635.025C462.168 638.78 460.163 642.278 457.518 645.521C454.872 648.764 451.587 651.708 447.662 654.353C443.822 656.913 439.384 659.089 434.35 660.881C429.315 662.588 423.726 663.868 417.582 664.721L411.438 651.537C416.814 650.94 421.635 649.958 425.902 648.593C430.168 647.228 433.88 645.606 437.038 643.729C440.195 641.766 442.798 639.676 444.846 637.457C446.979 635.153 448.558 632.806 449.582 630.417C450.606 627.942 451.118 625.51 451.118 623.121V619.537ZM453.934 619.537H468.526V623.121C468.526 625.51 469.038 627.942 470.062 630.417C471.086 632.806 472.622 635.153 474.67 637.457C476.803 639.676 479.448 641.766 482.606 643.729C485.763 645.606 489.475 647.228 493.742 648.593C498.094 649.958 502.915 650.94 508.206 651.537L502.062 664.721C495.918 663.868 490.328 662.588 485.294 660.881C480.344 659.089 475.907 656.913 471.982 654.353C468.056 651.708 464.771 648.764 462.126 645.521C459.48 642.278 457.432 638.78 455.982 635.025C454.616 631.185 453.934 627.217 453.934 623.121V619.537ZM606.116 618.257H623.012V736.785H606.116V618.257ZM530.212 629.521H547.236V703.249H530.212V629.521ZM530.212 693.137H540.708C549.412 693.137 558.5 692.796 567.972 692.113C577.444 691.345 587.086 689.98 596.9 688.017L598.692 702.225C588.622 704.358 578.681 705.809 568.868 706.577C559.14 707.26 549.753 707.601 540.708 707.601H530.212V693.137ZM717.466 618.129H734.618V737.041H717.466V618.129ZM730.906 662.033H751.77V676.113H730.906V662.033ZM646.298 694.545H656.282C663.023 694.545 669.338 694.46 675.226 694.289C681.114 694.033 686.831 693.649 692.378 693.137C697.924 692.54 703.599 691.729 709.402 690.705L711.066 704.785C705.092 705.809 699.204 706.62 693.402 707.217C687.684 707.814 681.796 708.198 675.738 708.369C669.679 708.54 663.194 708.625 656.282 708.625H646.298V694.545ZM646.298 629.137H701.594V642.833H663.322V701.201H646.298V629.137Z" fill="black"/>
</svg>
