<svg width="1060" height="847" viewBox="0 0 1060 847" fill="none" xmlns="http://www.w3.org/2000/svg">
<path d="M0.510986 0.217957H1059.18V846.944H0.510986V0.217957Z" fill="#FFFCE2"/>
<mask id="path-2-inside-1_17_30" fill="white">
<path fill-rule="evenodd" clip-rule="evenodd" d="M887.498 223.463C887.515 222.829 887.524 222.192 887.524 221.554C887.524 184.018 857.095 153.589 819.56 153.589C782.024 153.589 751.595 184.018 751.595 221.554C751.595 225.752 751.976 229.861 752.704 233.849L785.577 598.216H853.663V597.216H786.491L786.482 597.109H853.647L853.65 597.076L853.663 597.077L886.787 231.6C887.161 229.077 887.396 226.51 887.484 223.905L887.524 223.465L887.498 223.463ZM819.56 715.439C843.682 715.439 863.238 695.884 863.238 671.761C863.238 647.638 843.682 628.083 819.56 628.083C795.437 628.083 775.882 647.638 775.882 671.761C775.882 695.884 795.437 715.439 819.56 715.439Z"/>
</mask>
<path fill-rule="evenodd" clip-rule="evenodd" d="M887.498 223.463C887.515 222.829 887.524 222.192 887.524 221.554C887.524 184.018 857.095 153.589 819.56 153.589C782.024 153.589 751.595 184.018 751.595 221.554C751.595 225.752 751.976 229.861 752.704 233.849L785.577 598.216H853.663V597.216H786.491L786.482 597.109H853.647L853.65 597.076L853.663 597.077L886.787 231.6C887.161 229.077 887.396 226.51 887.484 223.905L887.524 223.465L887.498 223.463ZM819.56 715.439C843.682 715.439 863.238 695.884 863.238 671.761C863.238 647.638 843.682 628.083 819.56 628.083C795.437 628.083 775.882 647.638 775.882 671.761C775.882 695.884 795.437 715.439 819.56 715.439Z" fill="#F84128"/>
<path d="M887.498 223.463L885.499 223.407L885.447 225.285L887.317 225.454L887.498 223.463ZM752.704 233.849L754.696 233.669L754.688 233.579L754.672 233.489L752.704 233.849ZM785.577 598.216L783.585 598.395L783.75 600.216H785.577V598.216ZM853.663 598.216V600.216H855.663V598.216H853.663ZM853.663 597.216H855.663V595.216H853.663V597.216ZM786.491 597.216L784.499 597.395L784.664 599.216H786.491V597.216ZM786.482 597.109V595.109H784.293L784.49 597.289L786.482 597.109ZM853.647 597.109V599.109H855.475L855.639 597.288L853.647 597.109ZM853.65 597.076L853.828 595.084L851.837 594.905L851.658 596.897L853.65 597.076ZM853.663 597.077L853.485 599.069L855.475 599.248L855.655 597.257L853.663 597.077ZM886.787 231.6L884.809 231.306L884.8 231.363L884.795 231.419L886.787 231.6ZM887.484 223.905L885.492 223.725L885.487 223.781L885.485 223.837L887.484 223.905ZM887.524 223.465L889.516 223.646L889.697 221.654L887.705 221.473L887.524 223.465ZM885.524 221.554C885.524 222.174 885.516 222.792 885.499 223.407L889.497 223.518C889.515 222.865 889.524 222.211 889.524 221.554H885.524ZM819.56 155.589C855.991 155.589 885.524 185.123 885.524 221.554H889.524C889.524 182.914 858.2 151.589 819.56 151.589V155.589ZM753.595 221.554C753.595 185.123 783.128 155.589 819.56 155.589V151.589C780.919 151.589 749.595 182.914 749.595 221.554H753.595ZM754.672 233.489C753.965 229.62 753.595 225.631 753.595 221.554H749.595C749.595 225.873 749.987 230.103 750.737 234.208L754.672 233.489ZM787.569 598.036L754.696 233.669L750.712 234.029L783.585 598.395L787.569 598.036ZM853.663 596.216H785.577V600.216H853.663V596.216ZM851.663 597.216V598.216H855.663V597.216H851.663ZM786.491 599.216H853.663V595.216H786.491V599.216ZM784.49 597.289L784.499 597.395L788.483 597.036L788.474 596.929L784.49 597.289ZM853.647 595.109H786.482V599.109H853.647V595.109ZM851.658 596.897L851.655 596.93L855.639 597.288L855.642 597.255L851.658 596.897ZM853.842 595.085L853.828 595.084L853.471 599.068L853.485 599.069L853.842 595.085ZM884.795 231.419L851.671 596.896L855.655 597.257L888.779 231.78L884.795 231.419ZM885.485 223.837C885.399 226.366 885.171 228.859 884.809 231.306L888.765 231.893C889.15 229.296 889.392 226.654 889.483 223.973L885.485 223.837ZM885.532 223.284L885.492 223.725L889.476 224.086L889.516 223.646L885.532 223.284ZM887.317 225.454L887.344 225.457L887.705 221.473L887.678 221.471L887.317 225.454ZM861.238 671.761C861.238 694.779 842.578 713.439 819.56 713.439V717.439C844.787 717.439 865.238 696.988 865.238 671.761H861.238ZM819.56 630.083C842.578 630.083 861.238 648.743 861.238 671.761H865.238C865.238 646.534 844.787 626.083 819.56 626.083V630.083ZM777.882 671.761C777.882 648.743 796.541 630.083 819.56 630.083V626.083C794.332 626.083 773.882 646.534 773.882 671.761H777.882ZM819.56 713.439C796.541 713.439 777.882 694.779 777.882 671.761H773.882C773.882 696.988 794.332 717.439 819.56 717.439V713.439Z" fill="black" mask="url(#path-2-inside-1_17_30)"/>
<path d="M303.075 227.323H319.203V345.851H303.075V227.323ZM287.587 273.019H307.299V286.715H287.587V273.019ZM276.579 229.371H292.451V340.347H276.579V229.371ZM222.435 240.507H239.459V308.987H222.435V240.507ZM222.435 302.459H230.627C236.344 302.459 242.488 302.288 249.059 301.947C255.715 301.52 262.712 300.581 270.051 299.131L271.587 313.723C263.907 315.088 256.653 315.984 249.827 316.411C243 316.837 236.6 317.051 230.627 317.051H222.435V302.459ZM359.641 267.003H376.537V288.763H359.641V267.003ZM401.241 267.003H418.265V288.763H401.241V267.003ZM335.449 283.643H442.713V296.955H335.449V283.643ZM388.825 302.971C401.625 302.971 411.694 304.848 419.033 308.603C426.371 312.272 430.041 317.563 430.041 324.475C430.041 331.301 426.371 336.592 419.033 340.347C411.694 344.101 401.625 345.979 388.825 345.979C376.025 345.979 365.955 344.101 358.617 340.347C351.363 336.592 347.737 331.301 347.737 324.475C347.737 317.563 351.363 312.272 358.617 308.603C365.955 304.848 376.025 302.971 388.825 302.971ZM388.825 315.771C383.534 315.771 379.097 316.112 375.513 316.795C372.014 317.392 369.369 318.331 367.577 319.611C365.785 320.891 364.889 322.512 364.889 324.475C364.889 326.437 365.785 328.101 367.577 329.467C369.369 330.747 372.014 331.685 375.513 332.283C379.097 332.88 383.534 333.179 388.825 333.179C394.115 333.179 398.51 332.88 402.009 332.283C405.593 331.685 408.281 330.747 410.073 329.467C411.865 328.101 412.761 326.437 412.761 324.475C412.761 322.512 411.865 320.891 410.073 319.611C408.281 318.331 405.593 317.392 402.009 316.795C398.51 316.112 394.115 315.771 388.825 315.771ZM389.081 229.115C397.87 229.115 405.465 230.053 411.865 231.931C418.35 233.723 423.342 236.325 426.841 239.739C430.339 243.152 432.089 247.205 432.089 251.899C432.089 256.592 430.339 260.645 426.841 264.059C423.342 267.387 418.35 269.989 411.865 271.867C405.465 273.659 397.87 274.555 389.081 274.555C380.462 274.555 372.91 273.659 366.425 271.867C359.939 269.989 354.947 267.387 351.449 264.059C347.95 260.645 346.201 256.592 346.201 251.899C346.201 247.205 347.95 243.152 351.449 239.739C354.947 236.325 359.939 233.723 366.425 231.931C372.91 230.053 380.462 229.115 389.081 229.115ZM389.081 242.043C383.79 242.043 379.225 242.427 375.385 243.195C371.545 243.877 368.643 244.944 366.681 246.395C364.803 247.845 363.865 249.68 363.865 251.899C363.865 254.032 364.803 255.824 366.681 257.275C368.643 258.725 371.545 259.835 375.385 260.603C379.225 261.285 383.79 261.627 389.081 261.627C394.542 261.627 399.15 261.285 402.905 260.603C406.659 259.835 409.518 258.725 411.481 257.275C413.443 255.824 414.425 254.032 414.425 251.899C414.425 249.68 413.443 247.845 411.481 246.395C409.518 244.944 406.659 243.877 402.905 243.195C399.15 242.427 394.542 242.043 389.081 242.043ZM534.607 227.195H551.631V346.107H534.607V227.195ZM487.759 235.515C493.817 235.515 499.193 237.264 503.887 240.763C508.58 244.176 512.249 249.083 514.895 255.483C517.625 261.797 518.991 269.264 518.991 277.883C518.991 286.587 517.625 294.139 514.895 300.539C512.249 306.853 508.58 311.76 503.887 315.259C499.193 318.672 493.817 320.379 487.759 320.379C481.785 320.379 476.452 318.672 471.759 315.259C467.065 311.76 463.353 306.853 460.623 300.539C457.977 294.139 456.655 286.587 456.655 277.883C456.655 269.264 457.977 261.797 460.623 255.483C463.353 249.083 467.065 244.176 471.759 240.763C476.452 237.264 481.785 235.515 487.759 235.515ZM487.759 251.003C484.857 251.003 482.297 252.027 480.079 254.075C477.86 256.123 476.111 259.152 474.831 263.163C473.636 267.088 473.039 271.995 473.039 277.883C473.039 283.685 473.636 288.635 474.831 292.731C476.111 296.741 477.86 299.771 480.079 301.819C482.297 303.867 484.857 304.891 487.759 304.891C490.745 304.891 493.348 303.867 495.567 301.819C497.785 299.771 499.492 296.741 500.687 292.731C501.967 288.635 502.607 283.685 502.607 277.883C502.607 271.995 501.967 267.088 500.687 263.163C499.492 259.152 497.785 256.123 495.567 254.075C493.348 252.027 490.745 251.003 487.759 251.003ZM259.683 394.867H274.787V397.811C274.787 402.504 273.763 406.984 271.715 411.251C269.752 415.517 266.851 419.4 263.011 422.899C259.171 426.312 254.349 429.171 248.547 431.475C242.829 433.779 236.216 435.4 228.707 436.339L222.435 422.771C227.555 422.173 232.12 421.277 236.131 420.083C240.227 418.888 243.725 417.48 246.627 415.859C249.613 414.152 252.045 412.317 253.923 410.355C255.885 408.307 257.336 406.216 258.275 404.083C259.213 401.949 259.683 399.859 259.683 397.811V394.867ZM268.003 394.867H282.979V397.811C282.979 399.859 283.448 401.949 284.387 404.083C285.325 406.216 286.776 408.307 288.739 410.355C290.701 412.317 293.133 414.152 296.035 415.859C298.936 417.48 302.392 418.888 306.403 420.083C310.499 421.277 315.107 422.173 320.227 422.771L314.083 436.339C306.488 435.4 299.832 433.779 294.115 431.475C288.397 429.171 283.576 426.312 279.651 422.899C275.811 419.4 272.909 415.56 270.947 411.379C268.984 407.112 268.003 402.589 268.003 397.811V394.867ZM227.555 387.443H315.363V400.883H227.555V387.443ZM230.755 485.235H312.931V498.931H230.755V485.235ZM230.755 465.011H247.779V490.227H230.755V465.011ZM217.699 444.147H325.091V457.715H217.699V444.147ZM262.627 427.891H279.651V449.651H262.627V427.891ZM421.977 382.323H438.233V500.851H421.977V382.323ZM407.897 427.763H427.481V441.587H407.897V427.763ZM396.505 384.243H412.377V495.603H396.505V384.243ZM356.697 400.883H369.625V411.251C369.625 418.589 369.155 425.672 368.217 432.499C367.363 439.24 365.913 445.555 363.865 451.443C361.902 457.245 359.257 462.451 355.929 467.059C352.601 471.667 348.462 475.421 343.513 478.323L333.273 465.395C339.161 461.896 343.811 457.373 347.225 451.827C350.638 446.28 353.07 440.051 354.521 433.139C355.971 426.141 356.697 418.845 356.697 411.251V400.883ZM360.153 400.883H373.081V411.251C373.081 418.163 373.806 424.861 375.257 431.347C376.793 437.832 379.267 443.635 382.681 448.755C386.179 453.875 390.873 457.971 396.761 461.043L387.033 473.971C380.377 470.387 375.086 465.437 371.161 459.123C367.235 452.808 364.419 445.555 362.713 437.363C361.006 429.171 360.153 420.467 360.153 411.251V400.883ZM336.985 394.355H390.873V408.051H336.985V394.355ZM529.231 382.451H546.255V500.979H529.231V382.451ZM542.415 428.659H563.279V442.739H542.415V428.659ZM452.687 399.859H521.807V413.427H452.687V399.859ZM487.503 420.211C493.22 420.211 498.34 421.448 502.863 423.923C507.385 426.312 510.927 429.597 513.487 433.779C516.132 437.96 517.455 442.824 517.455 448.371C517.455 453.917 516.132 458.824 513.487 463.091C510.927 467.272 507.385 470.6 502.863 473.075C498.425 475.464 493.305 476.659 487.503 476.659C481.785 476.659 476.623 475.464 472.015 473.075C467.492 470.6 463.908 467.272 461.263 463.091C458.703 458.824 457.423 453.917 457.423 448.371C457.423 442.824 458.703 437.96 461.263 433.779C463.908 429.597 467.492 426.312 472.015 423.923C476.623 421.448 481.785 420.211 487.503 420.211ZM487.503 434.035C484.772 434.035 482.383 434.589 480.335 435.699C478.287 436.808 476.665 438.429 475.471 440.563C474.276 442.696 473.679 445.299 473.679 448.371C473.679 451.357 474.276 453.96 475.471 456.179C476.665 458.312 478.287 459.976 480.335 461.171C482.383 462.28 484.772 462.835 487.503 462.835C490.148 462.835 492.495 462.28 494.543 461.171C496.591 459.976 498.212 458.312 499.407 456.179C500.601 453.96 501.199 451.357 501.199 448.371C501.199 445.299 500.601 442.696 499.407 440.563C498.212 438.429 496.591 436.808 494.543 435.699C492.495 434.589 490.148 434.035 487.503 434.035ZM478.799 384.371H495.951V405.107H478.799V384.371ZM599.621 401.139H613.189V414.451C613.189 421.277 612.463 427.976 611.013 434.547C609.647 441.117 607.557 447.304 604.741 453.107C602.01 458.824 598.554 463.901 594.373 468.339C590.191 472.691 585.327 476.147 579.781 478.707L570.053 465.267C575.002 462.963 579.311 459.976 582.981 456.307C586.735 452.637 589.807 448.541 592.197 444.019C594.671 439.411 596.506 434.589 597.701 429.555C598.981 424.435 599.621 419.4 599.621 414.451V401.139ZM603.333 401.139H616.773V414.451C616.773 419.144 617.37 423.923 618.565 428.787C619.845 433.565 621.679 438.131 624.069 442.483C626.458 446.749 629.487 450.589 633.157 454.003C636.826 457.416 641.178 460.147 646.213 462.195L636.869 475.763C631.237 473.288 626.33 469.96 622.149 465.779C617.967 461.597 614.469 456.776 611.653 451.315C608.837 445.853 606.746 440.008 605.381 433.779C604.015 427.464 603.333 421.021 603.333 414.451V401.139ZM574.789 393.715H641.349V407.795H574.789V393.715ZM652.357 382.451H669.381V500.979H652.357V382.451ZM250.083 543.083C256.227 543.083 261.645 544.277 266.339 546.667C271.117 549.056 274.872 552.341 277.603 556.523C280.419 560.619 281.827 565.355 281.827 570.731C281.827 576.107 280.419 580.885 277.603 585.067C274.872 589.248 271.117 592.533 266.339 594.923C261.645 597.312 256.227 598.507 250.083 598.507C244.109 598.507 238.733 597.312 233.955 594.923C229.261 592.533 225.507 589.248 222.691 585.067C219.96 580.885 218.595 576.107 218.595 570.731C218.595 565.355 219.96 560.619 222.691 556.523C225.507 552.341 229.261 549.056 233.955 546.667C238.733 544.277 244.109 543.083 250.083 543.083ZM250.211 556.907C247.309 556.907 244.707 557.461 242.403 558.571C240.099 559.595 238.264 561.173 236.899 563.307C235.619 565.355 234.979 567.829 234.979 570.731C234.979 573.632 235.619 576.107 236.899 578.155C238.264 580.203 240.099 581.781 242.403 582.891C244.707 584 247.309 584.555 250.211 584.555C253.112 584.555 255.672 584 257.891 582.891C260.195 581.781 261.987 580.203 263.267 578.155C264.632 576.107 265.315 573.632 265.315 570.731C265.315 567.829 264.632 565.355 263.267 563.307C261.987 561.173 260.195 559.595 257.891 558.571C255.672 557.461 253.112 556.907 250.211 556.907ZM293.987 537.451H311.011V595.691H293.987V537.451ZM304.355 561.899H326.755V575.851H304.355V561.899ZM228.195 639.211H234.851C238.264 639.211 241.549 639.125 244.707 638.955C247.949 638.784 251.064 638.443 254.051 637.931C257.123 637.333 260.109 636.523 263.011 635.499L265.443 648.939C262.2 650.048 258.957 650.859 255.715 651.371C252.472 651.968 249.144 652.352 245.731 652.523C242.403 652.779 238.776 652.907 234.851 652.907H228.195V639.211ZM228.195 607.083H244.707V643.435H228.195V607.083ZM261.347 607.467H320.483V619.627H261.347V607.467ZM290.915 622.699C297.656 622.699 303.16 624.235 307.427 627.307C311.693 630.293 313.827 634.304 313.827 639.339C313.827 644.544 311.693 648.64 307.427 651.627C303.16 654.613 297.656 656.107 290.915 656.107C284.173 656.107 278.669 654.613 274.403 651.627C270.136 648.64 268.003 644.544 268.003 639.339C268.003 634.304 270.136 630.293 274.403 627.307C278.669 624.235 284.173 622.699 290.915 622.699ZM290.915 634.219C288.696 634.219 286.819 634.645 285.283 635.499C283.832 636.352 283.107 637.632 283.107 639.339C283.107 641.131 283.832 642.453 285.283 643.307C286.819 644.16 288.696 644.587 290.915 644.587C293.133 644.587 294.968 644.16 296.419 643.307C297.955 642.453 298.723 641.131 298.723 639.339C298.723 637.632 297.955 636.352 296.419 635.499C294.968 634.645 293.133 634.219 290.915 634.219ZM282.723 599.019H299.235V616.683H282.723V599.019ZM347.993 608.363H364.889V618.347H412.377V608.363H429.145V654.699H347.993V608.363ZM364.889 631.147V641.387H412.377V631.147H364.889ZM335.449 589.163H442.713V602.475H335.449V589.163ZM380.377 538.603H394.969V542.187C394.969 546.368 394.243 550.336 392.793 554.091C391.427 557.845 389.422 561.344 386.777 564.587C384.131 567.829 380.846 570.773 376.921 573.419C373.081 575.979 368.643 578.155 363.609 579.947C358.574 581.653 352.985 582.933 346.841 583.787L340.697 570.603C346.073 570.005 350.894 569.024 355.161 567.659C359.427 566.293 363.139 564.672 366.297 562.795C369.454 560.832 372.057 558.741 374.105 556.523C376.238 554.219 377.817 551.872 378.841 549.483C379.865 547.008 380.377 544.576 380.377 542.187V538.603ZM383.193 538.603H397.785V542.187C397.785 544.576 398.297 547.008 399.321 549.483C400.345 551.872 401.881 554.219 403.929 556.523C406.062 558.741 408.707 560.832 411.865 562.795C415.022 564.672 418.734 566.293 423.001 567.659C427.353 569.024 432.174 570.005 437.465 570.603L431.321 583.787C425.177 582.933 419.587 581.653 414.553 579.947C409.603 578.155 405.166 575.979 401.241 573.419C397.315 570.773 394.03 567.829 391.385 564.587C388.739 561.344 386.691 557.845 385.241 554.091C383.875 550.251 383.193 546.283 383.193 542.187V538.603ZM535.375 537.323H552.271V655.851H535.375V537.323ZM459.471 548.587H476.495V622.315H459.471V548.587ZM459.471 612.203H469.967C478.671 612.203 487.759 611.861 497.231 611.179C506.703 610.411 516.345 609.045 526.159 607.083L527.951 621.291C517.881 623.424 507.94 624.875 498.127 625.643C488.399 626.325 479.012 626.667 469.967 626.667H459.471V612.203ZM646.725 537.195H663.877V656.107H646.725V537.195ZM660.165 581.099H681.029V595.179H660.165V581.099ZM575.557 613.611H585.541C592.282 613.611 598.597 613.525 604.485 613.355C610.373 613.099 616.09 612.715 621.637 612.203C627.183 611.605 632.858 610.795 638.661 609.771L640.325 623.851C634.351 624.875 628.463 625.685 622.661 626.283C616.943 626.88 611.055 627.264 604.997 627.435C598.938 627.605 592.453 627.691 585.541 627.691H575.557V613.611ZM575.557 548.203H630.853V561.899H592.581V620.267H575.557V548.203Z" fill="black"/>
</svg>
